<svg xmlns="http://www.w3.org/2000/svg" viewBox="0 0 900 600" width="900" height="600" role="img">
  <defs>
    <linearGradient id="sky" x1="0" y1="0" x2="0" y2="1"><stop offset="0" stop-color="#bfe6ff"/><stop offset="1" stop-color="#eef8ff"/></linearGradient>
    <linearGradient id="glass" x1="0" y1="0" x2="1" y2="1"><stop offset="0" stop-color="#dff6ff"/><stop offset="1" stop-color="#5f8da2"/></linearGradient>
    <linearGradient id="room" x1="0" y1="0" x2="1" y2="1"><stop offset="0" stop-color="#ffffff"/><stop offset="1" stop-color="#edf4ef"/></linearGradient>
    <filter id="shadow" x="-20%" y="-20%" width="140%" height="160%"><feDropShadow dx="0" dy="18" stdDeviation="18" flood-color="#1f2937" flood-opacity="0.18"/></filter>
  </defs>
  <rect width="900" height="600" fill="#f5f7f5"/>
  <path d="M90 95 H810 V500 H90 Z" fill="url(#room)" stroke="#d7ded9" stroke-width="6"/>
  <path d="M90 365 H810 V500 H90 Z" fill="#d9c3a9"/>
  <path d="M90 95 L250 205 H650 L810 95" fill="#e8eee9"/>
  <rect x="150" y="145" width="190" height="150" rx="6" fill="url(#glass)" stroke="#303848" stroke-width="8"/>
  <rect x="560" y="145" width="190" height="150" rx="6" fill="url(#glass)" stroke="#303848" stroke-width="8"/>
  <path d="M245 145 V295 M655 145 V295" stroke="#ffffff" stroke-width="5" opacity="0.7"/>
  <rect x="160" y="355" width="255" height="80" rx="18" fill="#a8704e" opacity="0.78"/>
  <rect x="455" y="310" width="150" height="135" rx="8" fill="#f9fafb" stroke="#d7ded9" stroke-width="5"/>
  <rect x="625" y="338" width="110" height="108" rx="10" fill="#303848" opacity="0.88"/>
  <circle cx="250" cy="318" r="35" fill="#ffffff" opacity="0.86"/>
  <text x="44" y="56" fill="#0f2f28" font-family="Arial, sans-serif" font-size="28" font-weight="800">APT-02 · living room</text>
  <text x="44" y="92" fill="#667085" font-family="Arial, sans-serif" font-size="18">72 м2 · визуал</text>

</svg>
