<?xml version="1.0" encoding="UTF-8"?>
<svg xmlns="http://www.w3.org/2000/svg" width="1536" height="864" viewBox="0 0 1536 864" role="img">
  <defs>
    <linearGradient id="sky" x1="0" x2="0" y1="0" y2="1">
      <stop offset="0" stop-color="#d8f0ff"/>
      <stop offset="1" stop-color="#f7fbff"/>
    </linearGradient>
    <linearGradient id="glass" x1="0" x2="1" y1="0" y2="1">
      <stop offset="0" stop-color="#bfe4f4"/>
      <stop offset="1" stop-color="#33485e"/>
    </linearGradient>
    <filter id="shadow" x="-20%" y="-20%" width="140%" height="140%">
      <feDropShadow dx="0" dy="18" stdDeviation="18" flood-color="#1d2733" flood-opacity=".22"/>
    </filter>
  </defs>
  
  <rect width="1536" height="864" fill="#f5f7f8"/>
  <rect x="0" y="0" width="1536" height="340" fill="#dfe9ee"/>
  <path d="M0 340 L1536 340 L1380 864 L155 864 Z" fill="#e8ded2"/>
  
  <rect x="64" y="52" width="470" height="112" rx="22" fill="#ffffff" opacity=".9"/>
  <text x="96" y="106" font-family="Arial, sans-serif" font-size="34" font-weight="700" fill="#132033">Ванная 6 м2</text>
  <text x="96" y="144" font-family="Arial, sans-serif" font-size="24" fill="#607087">ванна + инсталляция · 6 м2</text>

  <g filter="url(#shadow)">
    <rect x="334" y="238" width="870" height="420" rx="18" fill="#ffffff"/>
    <rect x="334" y="238" width="870" height="210" rx="18" fill="#eef3f5"/>
    <rect x="398" y="300" width="260" height="118" rx="12" fill="url(#glass)"/>
    <rect x="710" y="300" width="386" height="118" rx="12" fill="url(#glass)"/>
    
      <rect x="438" y="494" width="270" height="92" rx="46" fill="#ffffff" stroke="#5c8fab" stroke-width="12"/>
      <rect x="780" y="490" width="130" height="118" rx="18" fill="#d6e8ef"/>
      <rect x="964" y="500" width="100" height="92" rx="20" fill="#f7f7f1"/>
    
    <rect x="334" y="638" width="870" height="34" fill="#5c8fab" opacity=".85"/>
  </g>
  <text x="432" y="730" font-family="Arial, sans-serif" font-size="26" fill="#4f5f72">Визуал помещения и базовая расстановка</text>

</svg>
