<svg xmlns="http://www.w3.org/2000/svg" viewBox="0 0 900 600" width="900" height="600" role="img">
  <defs>
    <linearGradient id="sky" x1="0" y1="0" x2="0" y2="1"><stop offset="0" stop-color="#bfe6ff"/><stop offset="1" stop-color="#eef8ff"/></linearGradient>
    <linearGradient id="glass" x1="0" y1="0" x2="1" y2="1"><stop offset="0" stop-color="#dff6ff"/><stop offset="1" stop-color="#5f8da2"/></linearGradient>
    <linearGradient id="room" x1="0" y1="0" x2="1" y2="1"><stop offset="0" stop-color="#ffffff"/><stop offset="1" stop-color="#edf4ef"/></linearGradient>
    <filter id="shadow" x="-20%" y="-20%" width="140%" height="160%"><feDropShadow dx="0" dy="18" stdDeviation="18" flood-color="#1f2937" flood-opacity="0.18"/></filter>
  </defs>
  <rect width="900" height="600" fill="#f5f7f5"/>
  <path d="M90 95 H810 V500 H90 Z" fill="url(#room)" stroke="#d7ded9" stroke-width="6"/>
  <path d="M90 365 H810 V500 H90 Z" fill="#d9c3a9"/>
  <path d="M90 95 L250 205 H650 L810 95" fill="#e8eee9"/>
  <rect x="150" y="145" width="190" height="150" rx="6" fill="url(#glass)" stroke="#26323d" stroke-width="8"/>
  <rect x="560" y="145" width="190" height="150" rx="6" fill="url(#glass)" stroke="#26323d" stroke-width="8"/>
  <path d="M245 145 V295 M655 145 V295" stroke="#ffffff" stroke-width="5" opacity="0.7"/>
  <rect x="155" y="335" width="315" height="110" rx="8" fill="#f5efe4" stroke="#d8cab9" stroke-width="5"/>
  <rect x="185" y="355" width="70" height="60" fill="#ffffff" opacity="0.82"/>
  <rect x="520" y="352" width="220" height="82" rx="40" fill="#83654c" opacity="0.78"/>
  <rect x="570" y="320" width="44" height="110" fill="#26323d" opacity="0.9"/>
  <text x="44" y="56" fill="#0f2f28" font-family="Arial, sans-serif" font-size="28" font-weight="800">KIT-03 · кухня</text>
  <text x="44" y="92" fill="#667085" font-family="Arial, sans-serif" font-size="18">55 м2 · визуал</text>

</svg>
