<?xml version="1.0" encoding="UTF-8"?>
<svg xmlns="http://www.w3.org/2000/svg" width="1536" height="864" viewBox="0 0 1536 864" role="img">
  <defs>
    <linearGradient id="sky" x1="0" x2="0" y1="0" y2="1">
      <stop offset="0" stop-color="#d8f0ff"/>
      <stop offset="1" stop-color="#f7fbff"/>
    </linearGradient>
    <linearGradient id="glass" x1="0" x2="1" y1="0" y2="1">
      <stop offset="0" stop-color="#bfe4f4"/>
      <stop offset="1" stop-color="#33485e"/>
    </linearGradient>
    <filter id="shadow" x="-20%" y="-20%" width="140%" height="140%">
      <feDropShadow dx="0" dy="18" stdDeviation="18" flood-color="#1d2733" flood-opacity=".22"/>
    </filter>
  </defs>
  
  <rect width="1536" height="864" fill="url(#sky)"/>
  <circle cx="1338" cy="118" r="54" fill="#ffe49a" opacity=".75"/>
  <path d="M0 612 C260 545 430 590 645 548 C900 500 1120 555 1536 500 L1536 864 L0 864 Z" fill="#dfeecf"/>
  <path d="M0 705 C250 652 526 690 745 646 C1012 594 1250 650 1536 606 L1536 864 L0 864 Z" fill="#eef0dd"/>
  <path d="M165 730 C410 682 835 690 1198 744" stroke="#ffffff" stroke-width="18" stroke-linecap="round" opacity=".8"/>
  
  <rect x="64" y="52" width="470" height="112" rx="22" fill="#ffffff" opacity=".9"/>
  <text x="96" y="106" font-family="Arial, sans-serif" font-size="34" font-weight="700" fill="#132033">Дом 230 м2</text>
  <text x="96" y="144" font-family="Arial, sans-serif" font-size="24" fill="#607087">гараж 2 авто · 230 м2</text>


  <g filter="url(#shadow)">
    <ellipse cx="790" cy="684" rx="460" ry="42" fill="#26313d" opacity=".18"/>
    
      <rect x="320" y="348" width="810" height="250" fill="#f2f0e9"/>
      <rect x="420" y="248" width="550" height="158" fill="#f2f0e9"/>
      <polygon points="290,346 706,255 1122,346" fill="#1c2738"/>
      <rect x="405" y="384" width="180" height="112" rx="8" fill="url(#glass)"/>
      <rect x="646" y="384" width="210" height="112" rx="8" fill="url(#glass)"/>
      <rect x="900" y="385" width="78" height="213" rx="8" fill="#243142"/>
      <rect x="934" y="414" width="24" height="80" rx="4" fill="#c6e3ec"/>
      <rect x="1030" y="418" width="210" height="180" rx="10" fill="#2a313a"/><rect x="1060" y="454" width="150" height="72" fill="#52606d"/>
      <rect x="500" y="286" width="118" height="78" rx="6" fill="url(#glass)"/>
      <rect x="704" y="286" width="142" height="78" rx="6" fill="url(#glass)"/>
      
    
    <rect x="320" y="598" width="920" height="34" fill="#b7b0a4"/>
  </g>
  <g opacity=".95">
    <circle cx="230" cy="644" r="30" fill="#217257"/>
    <circle cx="1230" cy="635" r="36" fill="#217257"/>
    <circle cx="1300" cy="628" r="26" fill="#6aa052"/>
  </g>

</svg>
