<?xml version="1.0" encoding="UTF-8"?>
<svg xmlns="http://www.w3.org/2000/svg" viewBox="0 0 1536 864" width="1536" height="864" role="img" aria-label="Family cottage floor plan">
  <rect width="1536" height="864" fill="#ffffff"/>
  <rect x="70" y="96" width="260" height="548" fill="#fafafa" stroke="#94a3b8" stroke-width="4" stroke-dasharray="10 10"/><g stroke="#cbd5e1" stroke-width="3"><line x1="85" y1="116" x2="310" y2="116"/><line x1="85" y1="162" x2="310" y2="162"/><line x1="85" y1="208" x2="310" y2="208"/><line x1="85" y1="254" x2="310" y2="254"/><line x1="85" y1="300" x2="310" y2="300"/><line x1="85" y1="346" x2="310" y2="346"/><line x1="85" y1="392" x2="310" y2="392"/><line x1="85" y1="438" x2="310" y2="438"/><line x1="85" y1="484" x2="310" y2="484"/><line x1="85" y1="530" x2="310" y2="530"/><line x1="85" y1="576" x2="310" y2="576"/></g>
  <path d="M135 200 H915 V90 H1375 V510 H975 V650 H135 Z" fill="#fff" stroke="#111827" stroke-width="16" stroke-linejoin="round"/>
  <rect x="147" y="102" width="425" height="292" fill="#fff" stroke="#111827" stroke-width="10" />
  <rect x="147" y="394" width="425" height="244" fill="#fff" stroke="#111827" stroke-width="10" />
  <rect x="612" y="102" width="250" height="252" fill="#fff" stroke="#111827" stroke-width="10" />
  <rect x="612" y="354" width="250" height="284" fill="#fff" stroke="#111827" stroke-width="10" />
  <rect x="862" y="102" width="255" height="252" fill="#fff" stroke="#111827" stroke-width="10" />
  <rect x="1117" y="102" width="250" height="252" fill="#fff" stroke="#111827" stroke-width="10" />
  <rect x="862" y="354" width="255" height="284" fill="#fff" stroke="#111827" stroke-width="10" />
  <rect x="1117" y="354" width="250" height="284" fill="#fff" stroke="#111827" stroke-width="10" />
  <rect x="1153" y="405" width="154" height="118" rx="10" fill="#f8fafc" stroke="#94a3b8" stroke-width="3"/><rect x="1165" y="417" width="130" height="28" rx="6" fill="#e2e8f0"/>
  <g stroke="#111827" stroke-width="8"><line x1="612" y1="638" x2="1117" y2="638"/><line x1="735" y1="354" x2="735" y2="638"/></g>
  <rect x="205" y="146" width="210" height="78" rx="8" fill="#f8fafc" stroke="#94a3b8" stroke-width="3"/>
  <rect x="229" y="442" width="220" height="112" rx="12" fill="#f8fafc" stroke="#94a3b8" stroke-width="3"/>
  <rect x="465" y="220" width="98" height="146" rx="10" fill="#f8fafc" stroke="#94a3b8" stroke-width="3"/>
  <rect x="900" y="154" width="165" height="118" rx="10" fill="#f8fafc" stroke="#94a3b8" stroke-width="3"/><rect x="912" y="166" width="141" height="28" rx="6" fill="#e2e8f0"/><rect x="1153" y="154" width="165" height="118" rx="10" fill="#f8fafc" stroke="#94a3b8" stroke-width="3"/><rect x="1165" y="166" width="141" height="28" rx="6" fill="#e2e8f0"/><rect x="900" y="432" width="165" height="118" rx="10" fill="#f8fafc" stroke="#94a3b8" stroke-width="3"/><rect x="912" y="444" width="141" height="28" rx="6" fill="#e2e8f0"/><rect x="655" y="438" width="150" height="112" rx="10" fill="#f8fafc" stroke="#94a3b8" stroke-width="3"/><rect x="667" y="450" width="126" height="28" rx="6" fill="#e2e8f0"/>
  <rect x="655" y="164" width="82" height="54" rx="22" fill="#f8fafc" stroke="#64748b" stroke-width="3"/><circle cx="773" cy="190" r="24" fill="#f8fafc" stroke="#64748b" stroke-width="3"/><rect x="1150" y="545" width="82" height="54" rx="22" fill="#f8fafc" stroke="#64748b" stroke-width="3"/><circle cx="1268" cy="571" r="24" fill="#f8fafc" stroke="#64748b" stroke-width="3"/>
  <g stroke="#94a3b8" stroke-width="3"><line x1="1153" y1="285" x2="1153" y2="357"/><line x1="1171" y1="285" x2="1171" y2="357"/><line x1="1189" y1="285" x2="1189" y2="357"/><line x1="1207" y1="285" x2="1207" y2="357"/><line x1="1225" y1="285" x2="1225" y2="357"/><line x1="1243" y1="285" x2="1243" y2="357"/><line x1="1261" y1="285" x2="1261" y2="357"/></g><g stroke="#94a3b8" stroke-width="3"><line x1="900" y1="285" x2="900" y2="357"/><line x1="918" y1="285" x2="918" y2="357"/><line x1="936" y1="285" x2="936" y2="357"/><line x1="954" y1="285" x2="954" y2="357"/><line x1="972" y1="285" x2="972" y2="357"/><line x1="990" y1="285" x2="990" y2="357"/><line x1="1008" y1="285" x2="1008" y2="357"/></g><g stroke="#94a3b8" stroke-width="3"><line x1="901" y1="568" x2="901" y2="640"/><line x1="919" y1="568" x2="919" y2="640"/><line x1="937" y1="568" x2="937" y2="640"/><line x1="955" y1="568" x2="955" y2="640"/><line x1="973" y1="568" x2="973" y2="640"/><line x1="991" y1="568" x2="991" y2="640"/><line x1="1009" y1="568" x2="1009" y2="640"/></g>
  <rect x="665" y="605" width="96" height="55" fill="#fff" stroke="#111827" stroke-width="8"/>
  <path d="M590 395 v72 q58 0 58 -72" fill="none" stroke="#475569" stroke-width="4"/><path d="M865 354 v72 q-58 0 -58 -72" fill="none" stroke="#475569" stroke-width="4"/><path d="M1117 354 v72 q-58 0 -58 -72" fill="none" stroke="#475569" stroke-width="4"/><path d="M865 638 v72 q58 0 58 -72" fill="none" stroke="#475569" stroke-width="4"/><path d="M1117 638 v72 q58 0 58 -72" fill="none" stroke="#475569" stroke-width="4"/><path d="M735 638 v72 q-58 0 -58 -72" fill="none" stroke="#475569" stroke-width="4"/>
  <g stroke="#94a3b8" stroke-width="5" stroke-linecap="round">
    <line x1="220" y1="90" x2="525" y2="90"/><line x1="895" y1="90" x2="1075" y2="90"/><line x1="1150" y1="90" x2="1323" y2="90"/><line x1="175" y1="650" x2="545" y2="650"/>
  </g>
</svg>