<?xml version="1.0" encoding="UTF-8"?>
<svg xmlns="http://www.w3.org/2000/svg" viewBox="0 0 1536 864" width="1536" height="864" role="img" aria-label="Family cottage exterior">
  <defs>
    <linearGradient id="sky" x1="0" x2="0" y1="0" y2="1"><stop stop-color="#ccecff"/><stop offset="1" stop-color="#f8fbff"/></linearGradient>
    <linearGradient id="grass" x1="0" x2="1"><stop stop-color="#d9f0d8"/><stop offset="1" stop-color="#9fc887"/></linearGradient>
    <linearGradient id="wall" x1="0" x2="1"><stop stop-color="#f5efe5"/><stop offset="1" stop-color="#d7c5a7"/></linearGradient>
    <linearGradient id="roof" x1="0" x2="1"><stop stop-color="#374151"/><stop offset="1" stop-color="#0f172a"/></linearGradient>
    <filter id="soft" x="-20%" y="-20%" width="140%" height="140%"><feDropShadow dx="0" dy="12" stdDeviation="10" flood-color="#0f172a" flood-opacity="0.18"/></filter>
    <filter id="shadow" x="-20%" y="-20%" width="140%" height="140%"><feGaussianBlur stdDeviation="16"/></filter>
  </defs>
  <rect width="1536" height="864" fill="url(#sky)"/>
  <circle cx="1295" cy="122" r="58" fill="#fff7c7" opacity="0.8"/>
  <path d="M0 594 C260 554 480 598 740 570 C1010 538 1240 568 1536 535 L1536 864 L0 864 Z" fill="url(#grass)"/>
  <path d="M180 660 C430 610 800 624 1190 586 C1340 572 1460 590 1536 624 L1536 864 L0 864 L0 706 C52 690 112 674 180 660 Z" fill="#e8e2d4" opacity="0.8"/>
  <ellipse cx="780" cy="662" rx="570" ry="54" fill="#1f2937" opacity="0.18" filter="url(#shadow)"/>
  <g filter="url(#soft)">
    
    <rect x="250" y="382" width="880" height="205" rx="8" fill="url(#wall)"/>
    <rect x="720" y="420" width="260" height="155" rx="8" fill="#a56f3f" opacity="0.95"/>
    <path d="M212 390 L690 300 L1172 390 Z" fill="url(#roof)"/>
    <path d="M286 374 L690 318 L1094 374 Z" fill="#334155" opacity="0.16"/>
    <path d="M692 426 L850 326 L1012 426 Z" fill="url(#roof)"/>
    <rect x="250" y="561" width="880" height="28" fill="#6b7280" opacity="0.42"/>
    
    <g filter="url(#soft)">
      <rect x="320" y="438" width="150" height="112" rx="8" fill="#101827" opacity="0.82"/>
      <rect x="329" y="447" width="62" height="94" rx="4" fill="#dff4ff" opacity="0.9"/>
      <rect x="400" y="447" width="62" height="94" rx="4" fill="#f9fbff" opacity="0.84"/>
      <rect x="392" y="446" width="6" height="96" fill="#ffffff" opacity="0.75"/>
    </g>
    
    <g filter="url(#soft)">
      <rect x="550" y="436" width="225" height="112" rx="8" fill="#101827" opacity="0.82"/>
      <rect x="559" y="445" width="99.5" height="94" rx="4" fill="#dff4ff" opacity="0.9"/>
      <rect x="667.5" y="445" width="99.5" height="94" rx="4" fill="#f9fbff" opacity="0.84"/>
      <rect x="659.5" y="444" width="6" height="96" fill="#ffffff" opacity="0.75"/>
    </g>
    
    <g filter="url(#soft)">
      <rect x="778" y="468" width="142" height="104" rx="8" fill="#101827" opacity="0.82"/>
      <rect x="787" y="477" width="58" height="86" rx="4" fill="#dff4ff" opacity="0.9"/>
      <rect x="854" y="477" width="58" height="86" rx="4" fill="#f9fbff" opacity="0.84"/>
      <rect x="846" y="476" width="6" height="88" fill="#ffffff" opacity="0.75"/>
    </g>
    <rect x="975" y="454" width="78" height="133" rx="8" fill="#173142"/>
    <rect x="998" y="480" width="30" height="62" rx="4" fill="#e0f2fe" opacity="0.82"/>
    
  </g>
  <g><ellipse cx="212" cy="662" rx="37.400000000000006" ry="22" fill="#31734f" opacity="0.95"/><ellipse cx="295" cy="660" rx="27.200000000000003" ry="16" fill="#5c8f54" opacity="0.95"/><ellipse cx="1230" cy="642" rx="34" ry="20" fill="#31734f" opacity="0.95"/><ellipse cx="1320" cy="634" rx="28.9" ry="17" fill="#6e9f55" opacity="0.95"/><ellipse cx="1080" cy="680" rx="24.48" ry="14.399999999999999" fill="#2f6d4d" opacity="0.95"/></g>
  <path d="M610 676 C742 650 890 644 1015 625" fill="none" stroke="#f8fafc" stroke-width="18" stroke-linecap="round" opacity="0.66"/>
</svg>