<svg xmlns="http://www.w3.org/2000/svg" viewBox="0 0 900 600" width="900" height="600" role="img">
  <defs>
    <linearGradient id="sky" x1="0" y1="0" x2="0" y2="1"><stop offset="0" stop-color="#bfe6ff"/><stop offset="1" stop-color="#eef8ff"/></linearGradient>
    <linearGradient id="glass" x1="0" y1="0" x2="1" y2="1"><stop offset="0" stop-color="#dff6ff"/><stop offset="1" stop-color="#5f8da2"/></linearGradient>
    <linearGradient id="room" x1="0" y1="0" x2="1" y2="1"><stop offset="0" stop-color="#ffffff"/><stop offset="1" stop-color="#edf4ef"/></linearGradient>
    <filter id="shadow" x="-20%" y="-20%" width="140%" height="160%"><feDropShadow dx="0" dy="18" stdDeviation="18" flood-color="#1f2937" flood-opacity="0.18"/></filter>
  </defs>
  <rect width="900" height="600" fill="url(#sky)"/>
  <path d="M0 445 C160 395 250 470 390 430 C540 390 625 440 900 382 L900 600 L0 600 Z" fill="#d9efc8"/>
  <path d="M0 510 C190 465 350 528 520 482 C650 448 760 482 900 450 L900 600 L0 600 Z" fill="#b8d99c"/>
  <ellipse cx="455" cy="508" rx="310" ry="38" fill="#263238" opacity="0.18"/>
  <circle cx="730" cy="118" r="36" fill="#ffe08a" opacity="0.85"/>
  <g filter="url(#shadow)">
    <rect x="190" y="285" width="520" height="160" rx="5" fill="#f3f0e7"/>
    <path d="M160 285 L450 140 L740 285 Z" fill="#2f3a44"/>
    <path d="M202 285 L450 172 L700 285 Z" fill="#d59b5a" opacity="0.35"/>
    <rect x="250" y="335" width="88" height="80" fill="url(#glass)" stroke="#2f3a44" stroke-width="6"/>
    <rect x="410" y="335" width="88" height="80" fill="url(#glass)" stroke="#2f3a44" stroke-width="6"/>
    <rect x="575" y="333" width="58" height="112" fill="#2f3a44"/>
    <rect x="175" y="445" width="550" height="18" fill="#c9c2b8"/>
  </g>
  <rect x="120" y="350" width="38" height="118" fill="#cfd8dc"/>
  <rect x="112" y="335" width="54" height="22" fill="#94a3b8"/>
  <path d="M138 337 C210 300 270 287 350 294" fill="none" stroke="#d59b5a" stroke-width="9" stroke-linecap="round"/>
  <text x="44" y="56" fill="#0f2f28" font-family="Arial, sans-serif" font-size="28" font-weight="800">FAC-01 · фасад</text>

</svg>
