<svg xmlns="http://www.w3.org/2000/svg" viewBox="0 0 900 600" width="900" height="600" role="img">
  <defs>
    <linearGradient id="sky" x1="0" y1="0" x2="0" y2="1"><stop offset="0" stop-color="#bfe6ff"/><stop offset="1" stop-color="#eef8ff"/></linearGradient>
    <linearGradient id="glass" x1="0" y1="0" x2="1" y2="1"><stop offset="0" stop-color="#dff6ff"/><stop offset="1" stop-color="#5f8da2"/></linearGradient>
    <linearGradient id="room" x1="0" y1="0" x2="1" y2="1"><stop offset="0" stop-color="#ffffff"/><stop offset="1" stop-color="#edf4ef"/></linearGradient>
    <filter id="shadow" x="-20%" y="-20%" width="140%" height="160%"><feDropShadow dx="0" dy="18" stdDeviation="18" flood-color="#1f2937" flood-opacity="0.18"/></filter>
  </defs>
  <rect width="900" height="600" fill="url(#sky)"/>
  <path d="M0 445 C160 395 250 470 390 430 C540 390 625 440 900 382 L900 600 L0 600 Z" fill="#d9efc8"/>
  <path d="M0 510 C190 465 350 528 520 482 C650 448 760 482 900 450 L900 600 L0 600 Z" fill="#b8d99c"/>
  <ellipse cx="455" cy="508" rx="310" ry="38" fill="#263238" opacity="0.18"/>
  <circle cx="730" cy="118" r="36" fill="#ffe08a" opacity="0.85"/>
  <g filter="url(#shadow)">
    <rect x="165" y="300" width="570" height="180" rx="5" fill="#efe3cf"/>
    <path d="M145 303 L450 180 L755 303 Z" fill="#324055"/>
    <path d="M185 302 L450 210 L715 302 Z" fill="#334155" opacity="0.55"/>
    <rect x="185" y="310" width="120" height="130" fill="#8f6b46" opacity="0.92"/>
    <rect x="585" y="300" width="100" height="140" fill="#8f6b46" opacity="0.88"/>
  <rect x="330" y="326" width="74" height="78" rx="8" fill="url(#glass)" stroke="#26323d" stroke-width="5"/>
  <path d="M338 338 L392 392" stroke="#ffffff" stroke-width="4" opacity="0.42"/>
  <rect x="429" y="326" width="74" height="78" rx="8" fill="url(#glass)" stroke="#26323d" stroke-width="5"/>
  <path d="M437 338 L491 392" stroke="#ffffff" stroke-width="4" opacity="0.42"/>
  <rect x="528" y="326" width="74" height="78" rx="8" fill="url(#glass)" stroke="#26323d" stroke-width="5"/>
  <path d="M536 338 L590 392" stroke="#ffffff" stroke-width="4" opacity="0.42"/>
    <rect x="650" y="342" width="62" height="98" rx="5" fill="#324055"/>
    <rect x="666" y="382" width="10" height="22" rx="4" fill="#c9a66b"/>
    <rect x="145" y="440" width="615" height="18" fill="#c9c2b8"/>
  </g>
  <path d="M180 470 C260 452 340 480 430 466 C530 450 620 460 735 450" fill="none" stroke="#ffffff" stroke-width="8" stroke-linecap="round" opacity="0.8"/>
  <circle cx="175" cy="468" r="22" fill="#0f6b53"/>
  <circle cx="730" cy="468" r="21" fill="#0f6b53"/>
  <circle cx="766" cy="461" r="17" fill="#6ca156"/>
  <text x="40" y="54" fill="#0f2f28" font-family="Arial, sans-serif" font-size="28" font-weight="800">FAM-02 · 170 м2</text>

</svg>
