<svg xmlns="http://www.w3.org/2000/svg" viewBox="0 0 900 600" width="900" height="600" role="img">
  <defs>
    <linearGradient id="sky" x1="0" y1="0" x2="0" y2="1"><stop offset="0" stop-color="#bfe6ff"/><stop offset="1" stop-color="#eef8ff"/></linearGradient>
    <linearGradient id="glass" x1="0" y1="0" x2="1" y2="1"><stop offset="0" stop-color="#dff6ff"/><stop offset="1" stop-color="#5f8da2"/></linearGradient>
    <linearGradient id="room" x1="0" y1="0" x2="1" y2="1"><stop offset="0" stop-color="#ffffff"/><stop offset="1" stop-color="#edf4ef"/></linearGradient>
    <filter id="shadow" x="-20%" y="-20%" width="140%" height="160%"><feDropShadow dx="0" dy="18" stdDeviation="18" flood-color="#1f2937" flood-opacity="0.18"/></filter>
  </defs>
  <rect width="900" height="600" fill="url(#sky)"/>
  <path d="M0 445 C160 395 250 470 390 430 C540 390 625 440 900 382 L900 600 L0 600 Z" fill="#d9efc8"/>
  <path d="M0 510 C190 465 350 528 520 482 C650 448 760 482 900 450 L900 600 L0 600 Z" fill="#b8d99c"/>
  <ellipse cx="455" cy="508" rx="310" ry="38" fill="#263238" opacity="0.18"/>
  <circle cx="730" cy="118" r="36" fill="#ffe08a" opacity="0.85"/>
  <g filter="url(#shadow)">
    <rect x="120" y="245" width="300" height="190" rx="5" fill="#b8aa96"/>
    <path d="M105 245 L270 160 L435 245 Z" fill="#6b6259"/>
    <rect x="195" y="310" width="70" height="82" fill="#7d6b5a"/>
    <rect x="300" y="300" width="75" height="70" fill="#90b7c8" stroke="#2f3a44" stroke-width="5"/>
    <rect x="485" y="210" width="300" height="225" rx="5" fill="#d7c3a1"/>
    <path d="M460 210 L635 115 L810 210 Z" fill="#3b424c"/>
    <rect x="525" y="305" width="86" height="82" fill="url(#glass)" stroke="#3b424c" stroke-width="6"/>
    <rect x="645" y="305" width="86" height="82" fill="url(#glass)" stroke="#3b424c" stroke-width="6"/>
    <rect x="720" y="335" width="52" height="100" rx="5" fill="#3b424c"/>
    <rect x="475" y="435" width="325" height="18" fill="#c9c2b8"/>
  </g>
  <path d="M430 315 C455 290 470 287 498 304" fill="none" stroke="#f97316" stroke-width="12" stroke-linecap="round"/>
  <path d="M492 276 L505 304 L475 308" fill="#f97316"/>
  <text x="44" y="56" fill="#0f2f28" font-family="Arial, sans-serif" font-size="28" font-weight="800">REC-01 · реконструкция</text>

</svg>
