<svg xmlns="http://www.w3.org/2000/svg" viewBox="0 0 900 600" width="900" height="600" role="img">
  <defs>
    <linearGradient id="sky" x1="0" y1="0" x2="0" y2="1"><stop offset="0" stop-color="#bfe6ff"/><stop offset="1" stop-color="#eef8ff"/></linearGradient>
    <linearGradient id="glass" x1="0" y1="0" x2="1" y2="1"><stop offset="0" stop-color="#dff6ff"/><stop offset="1" stop-color="#5f8da2"/></linearGradient>
    <linearGradient id="room" x1="0" y1="0" x2="1" y2="1"><stop offset="0" stop-color="#ffffff"/><stop offset="1" stop-color="#edf4ef"/></linearGradient>
    <filter id="shadow" x="-20%" y="-20%" width="140%" height="160%"><feDropShadow dx="0" dy="18" stdDeviation="18" flood-color="#1f2937" flood-opacity="0.18"/></filter>
  </defs>
  <rect width="900" height="600" fill="#f8fbfa"/>
  <rect x="80" y="70" width="740" height="460" rx="8" fill="#ffffff" stroke="#26323d" stroke-width="10"/>
  <path d="M80 300 H820 M385 70 V530 M595 70 V300" stroke="#26323d" stroke-width="7"/>
  <rect x="100" y="95" width="260" height="180" rx="6" fill="#e9f5ef" stroke="#cbd8d3" stroke-width="3"/>
  <text x="118" y="133" fill="#0f2f28" font-family="Arial, sans-serif" font-size="22" font-weight="800">Гостиная</text>
  <text x="118" y="163" fill="#0f6b53" font-family="Arial, sans-serif" font-size="16" font-weight="700">25 м2</text>
  <rect x="405" y="95" width="170" height="180" rx="6" fill="#fff3e6" stroke="#cbd8d3" stroke-width="3"/>
  <text x="423" y="133" fill="#0f2f28" font-family="Arial, sans-serif" font-size="22" font-weight="800">Кухня</text>
  <text x="423" y="163" fill="#0f6b53" font-family="Arial, sans-serif" font-size="16" font-weight="700">22 м2</text>
  <rect x="615" y="95" width="185" height="180" rx="6" fill="#eaf3fb" stroke="#cbd8d3" stroke-width="3"/>
  <text x="633" y="133" fill="#0f2f28" font-family="Arial, sans-serif" font-size="22" font-weight="800">Спальня</text>
  <text x="633" y="163" fill="#0f6b53" font-family="Arial, sans-serif" font-size="16" font-weight="700">20 м2</text>
  <rect x="100" y="325" width="260" height="180" rx="6" fill="#f0edf9" stroke="#cbd8d3" stroke-width="3"/>
  <text x="118" y="363" fill="#0f2f28" font-family="Arial, sans-serif" font-size="22" font-weight="800">Санузел</text>
  <text x="118" y="393" fill="#0f6b53" font-family="Arial, sans-serif" font-size="16" font-weight="700">18 м2</text>
  <rect x="405" y="325" width="170" height="180" rx="6" fill="#eef1f4" stroke="#cbd8d3" stroke-width="3"/>
  <text x="423" y="363" fill="#0f2f28" font-family="Arial, sans-serif" font-size="22" font-weight="800">Холл</text>
  <text x="423" y="393" fill="#0f6b53" font-family="Arial, sans-serif" font-size="16" font-weight="700">16 м2</text>
  <rect x="615" y="325" width="185" height="180" rx="6" fill="#f8eee8" stroke="#cbd8d3" stroke-width="3"/>
  <text x="633" y="363" fill="#0f2f28" font-family="Arial, sans-serif" font-size="22" font-weight="800">Техзона</text>
  <text x="633" y="393" fill="#0f6b53" font-family="Arial, sans-serif" font-size="16" font-weight="700">15 м2</text>
  <text x="80" y="45" fill="#0f2f28" font-family="Arial, sans-serif" font-size="28" font-weight="800">B2-01 · этаж 2</text>
  <text x="650" y="560" fill="#667085" font-family="Arial, sans-serif" font-size="18">схема планировки</text>

</svg>
