<?xml version="1.0" encoding="UTF-8"?>
<svg xmlns="http://www.w3.org/2000/svg" width="1536" height="864" viewBox="0 0 1536 864" role="img">
  <defs>
    <linearGradient id="sky" x1="0" x2="0" y1="0" y2="1">
      <stop offset="0" stop-color="#d8f0ff"/>
      <stop offset="1" stop-color="#f7fbff"/>
    </linearGradient>
    <linearGradient id="glass" x1="0" x2="1" y1="0" y2="1">
      <stop offset="0" stop-color="#bfe4f4"/>
      <stop offset="1" stop-color="#33485e"/>
    </linearGradient>
    <filter id="shadow" x="-20%" y="-20%" width="140%" height="140%">
      <feDropShadow dx="0" dy="18" stdDeviation="18" flood-color="#1d2733" flood-opacity=".22"/>
    </filter>
  </defs>
  
  <rect width="1536" height="864" fill="#f7f8f6"/>
  
  <rect x="64" y="52" width="470" height="112" rx="22" fill="#ffffff" opacity=".9"/>
  <text x="96" y="106" font-family="Arial, sans-serif" font-size="34" font-weight="700" fill="#132033">Кирпичный дом 180 м2 · план</text>
  <text x="96" y="144" font-family="Arial, sans-serif" font-size="24" fill="#607087">классический фасад · 180 м2</text>

  <g transform="translate(230 190)" filter="url(#shadow)">
    <rect x="0" y="0" width="1080" height="560" rx="18" fill="#ffffff" stroke="#1d2835" stroke-width="10"/>
    <rect x="38" y="38" width="520" height="230" fill="#eaf2f5" stroke="#1d2835" stroke-width="6"/>
    <rect x="558" y="38" width="484" height="230" fill="#f5eee7" stroke="#1d2835" stroke-width="6"/>
    <rect x="38" y="268" width="330" height="252" fill="#eef5ea" stroke="#1d2835" stroke-width="6"/>
    <rect x="368" y="268" width="330" height="252" fill="#f5f1e4" stroke="#1d2835" stroke-width="6"/>
    <rect x="698" y="268" width="344" height="252" fill="#edf0f6" stroke="#1d2835" stroke-width="6"/>
    <text x="74" y="112" font-family="Arial, sans-serif" font-size="30" font-weight="700" fill="#152132">Кухня-гостиная</text><text x="600" y="112" font-family="Arial, sans-serif" font-size="30" font-weight="700" fill="#152132">Спальня</text><text x="74" y="346" font-family="Arial, sans-serif" font-size="30" font-weight="700" fill="#152132">Спальня</text><text x="404" y="346" font-family="Arial, sans-serif" font-size="30" font-weight="700" fill="#152132">Санузел</text><text x="734" y="346" font-family="Arial, sans-serif" font-size="30" font-weight="700" fill="#152132">Котельная</text><text x="760" y="478" font-family="Arial, sans-serif" font-size="30" font-weight="700" fill="#152132">Холл</text>
    <path d="M520 268 C520 306 552 332 590 332" fill="none" stroke="#0b7a61" stroke-width="6"/>
    <path d="M698 420 C738 420 764 388 764 350" fill="none" stroke="#0b7a61" stroke-width="6"/>
  </g>
  <text x="260" y="805" font-family="Arial, sans-serif" font-size="25" fill="#64748b">Предпроектная схема: зоны, комнаты и логика движения</text>

</svg>
