<?xml version="1.0" encoding="UTF-8"?>
<svg xmlns="http://www.w3.org/2000/svg" width="1536" height="864" viewBox="0 0 1536 864" role="img">
  <defs>
    <linearGradient id="sky" x1="0" x2="0" y1="0" y2="1">
      <stop offset="0" stop-color="#d8f0ff"/>
      <stop offset="1" stop-color="#f7fbff"/>
    </linearGradient>
    <linearGradient id="glass" x1="0" x2="1" y1="0" y2="1">
      <stop offset="0" stop-color="#bfe4f4"/>
      <stop offset="1" stop-color="#33485e"/>
    </linearGradient>
    <filter id="shadow" x="-20%" y="-20%" width="140%" height="140%">
      <feDropShadow dx="0" dy="18" stdDeviation="18" flood-color="#1d2733" flood-opacity=".22"/>
    </filter>
  </defs>
  
  <rect width="1536" height="864" fill="url(#sky)"/>
  <circle cx="1338" cy="118" r="54" fill="#ffe49a" opacity=".75"/>
  <path d="M0 612 C260 545 430 590 645 548 C900 500 1120 555 1536 500 L1536 864 L0 864 Z" fill="#dfeecf"/>
  <path d="M0 705 C250 652 526 690 745 646 C1012 594 1250 650 1536 606 L1536 864 L0 864 Z" fill="#eef0dd"/>
  <path d="M165 730 C410 682 835 690 1198 744" stroke="#ffffff" stroke-width="18" stroke-linecap="round" opacity=".8"/>
  
  <rect x="64" y="52" width="470" height="112" rx="22" fill="#ffffff" opacity=".9"/>
  <text x="96" y="106" font-family="Arial, sans-serif" font-size="34" font-weight="700" fill="#132033">Таунхаус 120 м2</text>
  <text x="96" y="144" font-family="Arial, sans-serif" font-size="24" fill="#607087">семейная секция · 120 м2</text>


  <g filter="url(#shadow)">
    <ellipse cx="790" cy="684" rx="460" ry="42" fill="#26313d" opacity=".18"/>
    
      <rect x="324" y="340" width="744" height="250" fill="#f2f0e9"/>
      <rect x="320" y="306" width="752" height="50" fill="#1c2738"/>
      <rect x="360" y="378" width="166" height="96" rx="8" fill="url(#glass)"/><rect x="412" y="496" width="62" height="94" rx="7" fill="#243142"/><line x1="580" y1="340" x2="580" y2="590" stroke="#ffffff" stroke-width="7" opacity=".55"/><rect x="580" y="378" width="166" height="96" rx="8" fill="url(#glass)"/><rect x="632" y="496" width="62" height="94" rx="7" fill="#243142"/><line x1="800" y1="340" x2="800" y2="590" stroke="#ffffff" stroke-width="7" opacity=".55"/><rect x="800" y="378" width="166" height="96" rx="8" fill="url(#glass)"/><rect x="852" y="496" width="62" height="94" rx="7" fill="#243142"/><line x1="1020" y1="340" x2="1020" y2="590" stroke="#ffffff" stroke-width="7" opacity=".55"/>
    
    <rect x="320" y="598" width="780" height="34" fill="#b7b0a4"/>
  </g>
  <g opacity=".95">
    <circle cx="230" cy="644" r="30" fill="#217257"/>
    <circle cx="1230" cy="635" r="36" fill="#217257"/>
    <circle cx="1300" cy="628" r="26" fill="#6aa052"/>
  </g>

</svg>
